<svg xmlns="http://www.w3.org/2000/svg" viewBox="0 0 128 128">
  <rect width="128" height="128" rx="64" fill="#f58a32"/>
  <path d="M39 78c7 11 16 17 26 17 12 0 21-6 26-18M42 47c8-11 17-16 28-14 13 2 20 11 21 27-8-1-15-5-20-12-8 8-18 12-30 12 0-5 0-9 1-13Z" fill="none" stroke="#241d18" stroke-width="8" stroke-linecap="round" stroke-linejoin="round"/>
  <circle cx="52" cy="66" r="4" fill="#241d18"/>
  <circle cx="78" cy="66" r="4" fill="#241d18"/>
  <path d="M57 79c5 3 10 3 15 0" fill="none" stroke="#241d18" stroke-width="5" stroke-linecap="round"/>
</svg>
